<?xml version="1.0" encoding="iso-8859-1"?>
<!-- Generator: Adobe Illustrator 19.0.0, SVG Export Plug-In . SVG Version: 6.00 Build 0)  -->
<svg version="1.1" id="Layer_1" xmlns="http://www.w3.org/2000/svg" xmlns:xlink="http://www.w3.org/1999/xlink" x="0px" y="0px"
	 viewBox="0 0 488.9 488.9" style="enable-background:new 0 0 488.9 488.9;" xml:space="preserve">
<g>
	<g>
		<path fill="#ffff" d="M243.9,0c-51,0-92.6,41.6-92.6,92.6v189.3c0,43.8,30.8,80.7,71.8,90.2v75.2H195c-11.4,0-20.8,9.4-20.8,20.8
			s9.4,20.8,20.8,20.8h97.8c11.4,0,20.8-9.4,20.8-20.8s-9.4-20.8-20.8-20.8h-28.1v-75.2c41-9.5,71.8-46.4,71.8-90.2V92.6
			C336.5,41.6,294.9,0,243.9,0z M295.9,282c0,29.1-22.9,52-52,52s-52-22.9-52-52V92.6c0-29.1,22.9-52,52-52s52,23.9,52,52V282z"/>
		<path fill="#ffff" d="M450.9,91.6c-8.3-8.3-20.8-8.3-29.1-1c-8.3,8.3-8.3,20.8-1,29.1c35.4,37.5,35.4,98.8,0,136.3c-7.3,8.3-7.3,21.8,1,29.1
			c3.1,3.1,15.4,10.2,29.1-1C500.8,231,500.8,144.6,450.9,91.6z"/>
		<path fill="#ffff" d="M407.2,133.2c-8.3-8.3-20.8-8.3-29.1-1c-8.3,8.3-8.3,20.8-1,29.1c13.5,14.6,13.5,37.5,0,52c-7.3,8.3-7.3,21.8,1,29.1
			c3.1,3.1,15.7,10.6,29.1-1C435.3,211.2,435.3,163.4,407.2,133.2z"/>
		<path fill="#ffff" d="M68.1,119.7c7.3-8.3,7.3-20.8-1-29.1c-8.3-7.3-20.8-7.3-29.1,1c-49.9,53.1-49.9,139.4,0,192.5c13.8,11.2,26,4.2,29.1,1
			c8.3-7.3,8.3-20.8,1-29.1C32.7,218.5,32.7,157.1,68.1,119.7z"/>
		<path fill="#ffff" d="M110.7,132.1c-8.3-7.3-20.8-7.3-29.1,1c-28.1,30.2-28.1,78,0,108.2c13.4,11.6,26,4.2,29.1,1c8.3-7.3,8.3-20.8,1-29.1
			c-13.5-14.6-13.5-37.5,0-52C119,153,119,140.5,110.7,132.1z"/>
	</g>
</g>
<g>
</g>
<g>
</g>
<g>
</g>
<g>
</g>
<g>
</g>
<g>
</g>
<g>
</g>
<g>
</g>
<g>
</g>
<g>
</g>
<g>
</g>
<g>
</g>
<g>
</g>
<g>
</g>
<g>
</g>
</svg>
