<svg width="251.04" height="43.96" viewBox="0 0 251.04 43.96" xmlns="http://www.w3.org/2000/svg"><g id="svgGroup" stroke-linecap="round" fill-rule="evenodd" font-size="9pt" stroke="#ffffff" stroke-width="0.25mm" fill="#ffffff" style="stroke:#ffffff;stroke-width:0.25mm;fill:#ffffff"><path d="M 18.56 4.72 L 28.04 5 Q 28.524 5 29.179 4.847 A 10.165 10.165 0 0 0 29.86 4.66 A 19.599 19.599 0 0 1 30.306 4.528 Q 30.915 4.355 31.212 4.326 A 1.117 1.117 0 0 1 31.32 4.32 A 0.956 0.956 0 0 1 31.58 4.354 A 0.721 0.721 0 0 1 31.9 4.54 A 0.833 0.833 0 0 1 31.903 4.543 Q 32.119 4.762 32.12 5.078 A 0.96 0.96 0 0 1 32.12 5.08 A 1.655 1.655 0 0 1 31.599 6.293 A 2.437 2.437 0 0 1 31.36 6.5 Q 30.701 7.003 29.681 7.25 A 7.041 7.041 0 0 1 29.36 7.32 A 24.266 24.266 0 0 1 27.495 7.666 Q 26.281 7.84 25.24 7.84 Q 22.978 9.397 20.819 16.386 A 68.266 68.266 0 0 0 20.48 17.52 A 209.23 209.23 0 0 1 21.86 17.524 Q 24.62 17.543 25.4 17.64 L 25.32 19.52 Q 24.861 19.551 24.05 19.558 A 60.016 60.016 0 0 1 23.52 19.56 L 19.88 19.44 Q 17.931 25.392 14.801 29.223 A 20.88 20.88 0 0 1 13.84 30.32 Q 10.943 33.4 7.79 34.132 A 8.773 8.773 0 0 1 5.8 34.36 A 7.047 7.047 0 0 1 3.921 34.122 A 5.278 5.278 0 0 1 1.6 32.8 A 5.22 5.22 0 0 1 0.067 29.683 A 7.305 7.305 0 0 1 0 28.68 A 7.146 7.146 0 0 1 1.389 24.511 Q 2.614 22.764 4.92 21.18 A 19.781 19.781 0 0 1 11.961 18.197 A 27.2 27.2 0 0 1 17.04 17.6 Q 18.942 11.613 21.355 9.029 A 7.256 7.256 0 0 1 22.76 7.84 L 16.32 7.6 Q 12.765 7.6 10.805 8.405 A 5.943 5.943 0 0 0 10.3 8.64 A 5.071 5.071 0 0 0 9.365 9.26 Q 8.32 10.15 8.32 11.4 Q 8.32 12.32 9.08 12.94 Q 9.84 13.56 10.6 13.56 A 15.849 15.849 0 0 0 10.956 13.556 Q 11.455 13.545 11.74 13.5 Q 12.12 13.44 12.7 13.22 Q 13.234 13.017 13.48 12.934 A 5.979 5.979 0 0 1 13.52 12.92 A 10.702 10.702 0 0 0 14.17 12.677 Q 14.481 12.551 14.828 12.392 A 24.212 24.212 0 0 0 15.56 12.04 L 16.4 13.08 A 11.746 11.746 0 0 1 14.067 14.918 A 8.361 8.361 0 0 1 9.76 16.12 A 4.193 4.193 0 0 1 8.478 15.932 A 3.451 3.451 0 0 1 7.12 15.12 A 3.332 3.332 0 0 1 6.081 12.694 A 4.373 4.373 0 0 1 6.08 12.6 A 5.976 5.976 0 0 1 7.836 8.365 A 9.723 9.723 0 0 1 9.48 7 A 12.375 12.375 0 0 1 13.151 5.368 Q 15.531 4.72 18.56 4.72 Z M 81.56 0 L 83.6 0.72 L 83.04 1.76 Q 78.64 9.96 75.56 17.64 Q 73.975 21.556 73.621 23.951 A 8.621 8.621 0 0 0 73.52 25.2 A 2.076 2.076 0 0 0 73.56 25.622 Q 73.634 25.975 73.84 26.22 A 0.986 0.986 0 0 0 74.286 26.516 Q 74.531 26.6 74.86 26.6 Q 75.56 26.6 76.48 25.68 L 77.2 26.36 Q 76.71 27.452 75.547 28.385 A 8.364 8.364 0 0 1 75.4 28.5 A 5.791 5.791 0 0 1 74.529 29.058 Q 74.003 29.328 73.49 29.425 A 3.056 3.056 0 0 1 72.92 29.48 Q 70.728 29.48 70.607 27.053 A 5.868 5.868 0 0 1 70.6 26.76 A 8.804 8.804 0 0 1 70.666 25.756 Q 70.786 24.725 71.124 23.267 A 47.343 47.343 0 0 1 71.48 21.84 A 35.485 35.485 0 0 1 69.425 25.051 Q 67.137 28.2 64.897 29.377 A 5.673 5.673 0 0 1 62.24 30.08 Q 60.68 30.08 59.76 29.12 Q 58.84 28.16 58.84 26.52 Q 58.84 24.24 60.44 21.806 A 14.577 14.577 0 0 1 60.92 21.12 Q 63 18.32 66.04 16.54 A 15.289 15.289 0 0 1 68.264 15.455 Q 69.534 14.966 70.727 14.821 A 8.219 8.219 0 0 1 71.72 14.76 L 71.84 16.16 A 11.629 11.629 0 0 0 66.842 18.065 A 14.829 14.829 0 0 0 65.42 19.14 Q 62.44 21.68 62.44 24.32 A 3.383 3.383 0 0 0 62.518 25.066 Q 62.637 25.596 62.942 25.984 A 2.098 2.098 0 0 0 63.04 26.1 A 1.985 1.985 0 0 0 64.474 26.757 A 2.692 2.692 0 0 0 64.6 26.76 A 2.643 2.643 0 0 0 65.797 26.428 Q 67.449 25.579 69.72 22.56 A 17.178 17.178 0 0 0 70.478 21.473 Q 71.349 20.128 72.38 18.12 Q 73.88 15.2 74.78 13.42 Q 75.68 11.64 76.54 9.94 Q 77.309 8.419 78.511 6.034 A 5248.081 5248.081 0 0 0 78.8 5.46 Q 80.2 2.68 81.56 0 Z M 113.76 28.32 L 117 27.04 L 117.12 28.08 Q 116.98 28.185 114.253 29.203 A 419.834 419.834 0 0 1 113.4 29.52 Q 112.92 32.16 112.18 34.74 A 34.138 34.138 0 0 1 111.729 36.197 Q 111.215 37.728 110.7 38.66 A 21.637 21.637 0 0 1 109.326 40.824 A 24.42 24.42 0 0 1 108.96 41.32 A 6.332 6.332 0 0 1 104.388 43.919 A 8.133 8.133 0 0 1 103.56 43.96 A 4.4 4.4 0 0 1 102.396 43.814 A 3.253 3.253 0 0 1 100.88 42.92 A 3.462 3.462 0 0 1 100.012 41.288 Q 99.884 40.751 99.88 40.121 A 6.438 6.438 0 0 1 99.88 40.08 Q 99.88 33.657 109.873 29.578 A 42.84 42.84 0 0 1 111.48 28.96 L 113.64 21.36 Q 110.941 25.409 108.66 27.02 A 6.9 6.9 0 0 1 107.44 27.72 Q 106.08 28.36 104.58 28.36 Q 103.08 28.36 102.18 27.4 Q 101.28 26.44 101.28 24.6 Q 101.28 23.048 102.176 20.457 A 33.619 33.619 0 0 1 102.54 19.46 A 32.1 32.1 0 0 1 103.7 16.775 Q 104.483 15.18 105.36 13.92 L 107.32 14.76 Q 107.215 14.865 106.437 16.407 A 155.444 155.444 0 0 0 106.2 16.88 Q 104.865 19.642 104.542 21.321 A 5.142 5.142 0 0 0 104.44 22.28 A 7.119 7.119 0 0 0 104.48 23.064 Q 104.57 23.873 104.863 24.335 A 1.414 1.414 0 0 0 105.12 24.64 Q 105.8 25.24 107.12 25.24 A 2.73 2.73 0 0 0 108.147 25.022 Q 108.965 24.69 109.893 23.852 A 10.922 10.922 0 0 0 110.1 23.66 A 17.681 17.681 0 0 0 111.036 22.685 Q 112.623 20.919 115.24 17.4 L 116.68 18.24 Q 116.417 19.323 115.63 21.847 A 233.133 233.133 0 0 1 115.26 23.02 A 123.919 123.919 0 0 0 114.754 24.649 Q 114.06 26.94 113.76 28.32 Z M 57.2 24.72 L 58.04 25.36 Q 57.16 27.12 55.62 28.32 A 7.984 7.984 0 0 1 54.732 28.927 Q 54.262 29.2 53.823 29.348 A 3.084 3.084 0 0 1 52.84 29.52 A 3.45 3.45 0 0 1 52.016 29.427 A 2.371 2.371 0 0 1 50.88 28.8 A 2.429 2.429 0 0 1 50.161 27.069 A 3.189 3.189 0 0 1 50.16 27 A 2.85 2.85 0 0 1 50.241 26.382 Q 50.494 25.266 51.54 23.22 A 24.924 24.924 0 0 0 52.128 21.995 Q 52.918 20.215 52.92 19.245 A 2.414 2.414 0 0 0 52.92 19.24 A 1.33 1.33 0 0 0 52.651 18.441 A 1.874 1.874 0 0 0 52.46 18.22 A 1.539 1.539 0 0 0 51.853 17.837 A 1.556 1.556 0 0 0 51.36 17.76 Q 49.32 17.76 47.24 20.86 Q 45.361 23.66 43.091 28.696 A 115.713 115.713 0 0 0 42.6 29.8 L 40.2 28.96 Q 40.96 24.32 42.38 19.9 A 63.229 63.229 0 0 1 43.076 17.846 Q 44.1 15 45 13.56 L 46.64 14.08 Q 45.52 16.92 43.8 23.88 A 46.117 46.117 0 0 1 46.09 20.318 Q 50.299 14.44 53.96 14.44 A 2.415 2.415 0 0 1 54.823 14.589 A 2.18 2.18 0 0 1 55.62 15.12 Q 56.28 15.8 56.28 16.72 A 6.076 6.076 0 0 1 56.214 17.634 A 4.713 4.713 0 0 1 56.04 18.38 Q 55.8 19.12 54.54 21.82 A 48.899 48.899 0 0 0 54.112 22.761 Q 53.28 24.648 53.28 25.2 A 1.862 1.862 0 0 0 53.327 25.632 A 1.241 1.241 0 0 0 53.68 26.26 A 1.95 1.95 0 0 0 53.908 26.448 Q 54.033 26.535 54.154 26.583 A 0.778 0.778 0 0 0 54.44 26.64 Q 54.73 26.64 54.942 26.562 A 0.953 0.953 0 0 0 55.04 26.52 A 2.23 2.23 0 0 0 55.228 26.413 Q 55.328 26.35 55.437 26.27 A 4.665 4.665 0 0 0 55.58 26.16 Q 55.88 25.92 56.12 25.72 A 5.827 5.827 0 0 0 56.297 25.566 Q 56.387 25.485 56.488 25.388 A 13.659 13.659 0 0 0 56.7 25.18 Q 57.04 24.84 57.2 24.72 Z M 147.88 25.16 L 148.72 25.84 Q 148.04 27.52 146.58 28.68 A 7.635 7.635 0 0 1 145.781 29.241 Q 144.797 29.835 143.955 29.84 A 2.4 2.4 0 0 1 143.94 29.84 A 2.731 2.731 0 0 1 143.11 29.72 A 2.167 2.167 0 0 1 142.08 29.02 A 2.864 2.864 0 0 1 141.496 27.802 A 4.182 4.182 0 0 1 141.4 26.88 Q 141.4 25.56 141.84 23.48 A 22.442 22.442 0 0 1 140.157 25.806 Q 139.201 26.956 138.18 27.813 A 13.025 13.025 0 0 1 137.8 28.12 A 13.03 13.03 0 0 1 136.701 28.894 Q 135.545 29.614 134.621 29.762 A 2.921 2.921 0 0 1 134.16 29.8 Q 132.286 29.8 131.98 27.56 A 7.117 7.117 0 0 1 131.92 26.6 Q 131.92 23.88 133.76 19.64 Q 135.588 15.429 136.429 14.729 A 1.127 1.127 0 0 1 136.44 14.72 L 138.36 15.56 Q 136.72 18.2 135.88 20.76 A 42.627 42.627 0 0 0 135.553 21.799 Q 135.126 23.22 135.055 23.924 A 2.546 2.546 0 0 0 135.04 24.18 A 2.218 2.218 0 0 0 135.122 24.8 A 1.691 1.691 0 0 0 135.58 25.56 Q 136.12 26.08 136.84 26.08 Q 138.429 26.08 140.786 23.182 A 22.898 22.898 0 0 0 140.82 23.14 Q 143.094 20.331 145.459 14.875 A 75.104 75.104 0 0 0 145.68 14.36 L 147.72 15.28 A 1.932 1.932 0 0 1 147.674 15.423 Q 147.423 16.14 145.9 19.92 A 105.745 105.745 0 0 0 145.309 21.418 Q 144.16 24.401 144.16 25.1 A 3.112 3.112 0 0 0 144.195 25.585 Q 144.236 25.84 144.322 26.043 A 1.339 1.339 0 0 0 144.54 26.4 A 1.849 1.849 0 0 0 144.751 26.61 Q 144.871 26.711 144.991 26.767 A 0.72 0.72 0 0 0 145.3 26.84 Q 145.613 26.84 145.804 26.813 A 1.378 1.378 0 0 0 145.88 26.8 A 1.176 1.176 0 0 0 146.149 26.71 A 1.458 1.458 0 0 0 146.28 26.64 Q 146.418 26.558 146.527 26.494 A 12.825 12.825 0 0 1 146.62 26.44 A 0.955 0.955 0 0 0 146.713 26.378 Q 146.823 26.298 146.96 26.16 L 147.28 25.88 Q 147.36 25.76 147.58 25.5 A 19.63 19.63 0 0 1 147.67 25.395 Q 147.818 25.223 147.88 25.16 Z M 127.92 18.32 L 130 17.68 Q 131.04 19.4 131.04 21.48 Q 131.04 24.72 128.8 27.26 Q 126.56 29.8 123.52 29.8 Q 121.259 29.8 119.967 28.528 A 4.166 4.166 0 0 1 119.9 28.46 Q 118.639 27.16 118.601 24.9 A 8.404 8.404 0 0 1 118.6 24.76 A 9.206 9.206 0 0 1 120.746 18.854 A 12.45 12.45 0 0 1 121.56 17.94 A 11.045 11.045 0 0 1 123.982 16.041 A 8.407 8.407 0 0 1 128.2 14.92 Q 128.874 14.92 129.155 14.959 A 1.66 1.66 0 0 1 129.16 14.96 L 129.28 16.28 A 9.155 9.155 0 0 0 126.729 16.62 A 7.239 7.239 0 0 0 123.96 18.12 A 5.913 5.913 0 0 0 121.853 22.396 A 7.509 7.509 0 0 0 121.84 22.84 A 5.746 5.746 0 0 0 121.953 24.014 Q 122.111 24.77 122.489 25.354 A 3.436 3.436 0 0 0 122.68 25.62 A 2.717 2.717 0 0 0 124.357 26.61 A 4.141 4.141 0 0 0 125.14 26.68 Q 126.76 26.68 127.72 25.24 A 5.714 5.714 0 0 0 128.637 22.656 A 7.254 7.254 0 0 0 128.68 21.86 A 8.587 8.587 0 0 0 128.368 19.514 A 7.589 7.589 0 0 0 127.92 18.32 Z M 207.36 18.32 L 209.44 17.68 Q 210.48 19.4 210.48 21.48 Q 210.48 24.72 208.24 27.26 Q 206 29.8 202.96 29.8 Q 200.699 29.8 199.407 28.528 A 4.166 4.166 0 0 1 199.34 28.46 Q 198.079 27.16 198.041 24.9 A 8.404 8.404 0 0 1 198.04 24.76 A 9.206 9.206 0 0 1 200.186 18.854 A 12.45 12.45 0 0 1 201 17.94 A 11.045 11.045 0 0 1 203.422 16.041 A 8.407 8.407 0 0 1 207.64 14.92 Q 208.314 14.92 208.595 14.959 A 1.66 1.66 0 0 1 208.6 14.96 L 208.72 16.28 A 9.155 9.155 0 0 0 206.169 16.62 A 7.239 7.239 0 0 0 203.4 18.12 A 5.913 5.913 0 0 0 201.293 22.396 A 7.509 7.509 0 0 0 201.28 22.84 A 5.746 5.746 0 0 0 201.393 24.014 Q 201.551 24.77 201.929 25.354 A 3.436 3.436 0 0 0 202.12 25.62 A 2.717 2.717 0 0 0 203.797 26.61 A 4.141 4.141 0 0 0 204.58 26.68 Q 206.2 26.68 207.16 25.24 A 5.714 5.714 0 0 0 208.077 22.656 A 7.254 7.254 0 0 0 208.12 21.86 A 8.587 8.587 0 0 0 207.808 19.514 A 7.589 7.589 0 0 0 207.36 18.32 Z M 160.44 22.4 L 159.48 21.64 A 12.676 12.676 0 0 0 159.718 21.079 Q 160.033 20.283 160.04 19.86 A 1.156 1.156 0 0 0 160.04 19.84 A 1.387 1.387 0 0 0 159.974 19.393 Q 159.764 18.775 158.883 18.76 A 2.594 2.594 0 0 0 158.84 18.76 A 2.061 2.061 0 0 0 157.724 19.105 Q 157.389 19.317 157.065 19.659 A 5.708 5.708 0 0 0 156.56 20.28 A 15.208 15.208 0 0 0 155.885 21.329 Q 155.047 22.744 154.02 24.98 Q 152.676 27.908 151.925 29.26 A 16.748 16.748 0 0 1 151.8 29.48 L 149.52 28.48 Q 151.479 24.027 151.948 22.842 A 9.757 9.757 0 0 0 152.04 22.6 A 17.351 17.351 0 0 0 152.719 19.906 Q 153.12 17.605 153.12 14.68 L 155.36 14.08 Q 155.261 16.223 155.081 17.564 A 16.115 16.115 0 0 1 155 18.1 Q 154.819 19.171 154.252 21.253 A 110.091 110.091 0 0 1 153.84 22.72 A 45.22 45.22 0 0 1 155.31 20.232 Q 157.756 16.405 159.671 15.609 A 2.521 2.521 0 0 1 160.64 15.4 Q 161.64 15.4 162.28 16.08 A 2.322 2.322 0 0 1 162.885 17.356 A 3.219 3.219 0 0 1 162.92 17.84 A 4.418 4.418 0 0 1 162.483 19.696 Q 162.164 20.388 161.614 21.102 A 12.129 12.129 0 0 1 160.44 22.4 Z M 195.92 15.24 L 197.28 16.32 A 93.713 93.713 0 0 0 194.357 20.37 Q 191.701 24.284 190.375 27.3 A 23.549 23.549 0 0 0 190.08 28 A 3.909 3.909 0 0 1 189.731 28.673 Q 189.502 29.02 189.224 29.231 A 1.584 1.584 0 0 1 188.24 29.56 A 1.416 1.416 0 0 1 187.34 29.232 Q 187.141 29.073 186.959 28.839 A 3.044 3.044 0 0 1 186.9 28.76 A 6.66 6.66 0 0 1 186.535 28.203 Q 186.369 27.918 186.261 27.653 A 3.086 3.086 0 0 1 186.14 27.3 A 10.159 10.159 0 0 1 186.051 26.941 Q 185.914 26.356 185.699 25.247 A 140.499 140.499 0 0 1 185.56 24.52 Q 185.16 22.4 184.68 20.1 A 149.591 149.591 0 0 0 184.451 19.023 Q 184.125 17.515 183.9 16.66 A 431.929 431.929 0 0 0 183.778 16.199 Q 183.578 15.441 183.5 15.16 A 1.501 1.501 0 0 0 183.232 14.625 A 1.45 1.45 0 0 0 183.16 14.54 A 8.061 8.061 0 0 1 183.077 14.449 Q 182.953 14.31 182.904 14.239 A 0.341 0.341 0 0 1 182.88 14.2 L 185.48 14.44 A 33.353 33.353 0 0 1 186.944 18.945 A 38.893 38.893 0 0 1 187.32 20.6 A 21.269 21.269 0 0 1 187.402 20.964 Q 187.568 21.731 187.88 23.34 Q 188.28 25.4 188.52 26.56 Q 190.61 22.531 192.213 19.929 A 54.009 54.009 0 0 1 192.38 19.66 A 25.433 25.433 0 0 1 194.088 17.234 A 18.883 18.883 0 0 1 195.92 15.24 Z M 232.84 23.88 L 233.8 24.68 Q 232.84 26.88 230.72 28.2 Q 228.6 29.52 226.62 29.52 A 5.195 5.195 0 0 1 225.018 29.283 A 4.327 4.327 0 0 1 223.34 28.28 A 4.088 4.088 0 0 1 222.155 26.081 A 5.992 5.992 0 0 1 222.04 24.88 A 5.845 5.845 0 0 1 222.4 22.921 Q 222.682 22.127 223.185 21.29 A 13.194 13.194 0 0 1 223.92 20.2 A 14.702 14.702 0 0 1 228.041 16.471 A 17.268 17.268 0 0 1 228.78 16.04 A 14.064 14.064 0 0 1 231.552 14.863 A 10.804 10.804 0 0 1 234.64 14.4 Q 234.946 14.4 235.487 14.447 A 27.026 27.026 0 0 1 235.84 14.48 L 235.72 16.04 A 13.699 13.699 0 0 0 232.157 16.651 A 10.702 10.702 0 0 0 228.42 18.72 A 10.878 10.878 0 0 0 226.954 20.221 Q 226.181 21.197 225.825 22.219 A 5.376 5.376 0 0 0 225.52 24 A 3.04 3.04 0 0 0 225.637 24.862 A 2.36 2.36 0 0 0 226.24 25.88 A 2.422 2.422 0 0 0 227.667 26.57 A 3.346 3.346 0 0 0 228.12 26.6 A 3.414 3.414 0 0 0 229.338 26.347 Q 230.427 25.929 231.782 24.816 A 20.455 20.455 0 0 0 232.84 23.88 Z M 247.8 24.84 L 248.72 25.56 A 9.01 9.01 0 0 1 246.58 27.651 A 11.462 11.462 0 0 1 245.32 28.42 A 10.561 10.561 0 0 1 243.354 29.229 A 7.945 7.945 0 0 1 241.12 29.56 A 5.629 5.629 0 0 1 239.675 29.384 A 4.101 4.101 0 0 1 237.84 28.36 A 4.012 4.012 0 0 1 236.644 25.908 A 5.58 5.58 0 0 1 236.6 25.2 Q 236.6 22.181 239.224 19.243 A 17.788 17.788 0 0 1 240.5 17.96 Q 243.51 15.213 246.579 14.586 A 9.074 9.074 0 0 1 248.4 14.4 A 4.917 4.917 0 0 1 249.364 14.486 Q 251.04 14.823 251.04 16.48 A 3.83 3.83 0 0 1 250.545 18.31 Q 249.899 19.509 248.409 20.721 A 14.468 14.468 0 0 1 248.26 20.84 A 18.675 18.675 0 0 1 245.857 22.434 Q 244.582 23.154 243.027 23.826 A 43.117 43.117 0 0 1 240.44 24.84 A 3.199 3.199 0 0 0 241.009 25.791 A 2.924 2.924 0 0 0 241.56 26.28 A 3.138 3.138 0 0 0 242.278 26.652 A 2.493 2.493 0 0 0 243.12 26.8 Q 244.84 26.8 247.8 24.84 Z M 37.36 24.4 L 38.16 25.08 Q 37.2 26.92 35.62 28.22 Q 34.06 29.504 32.792 29.52 A 2.531 2.531 0 0 1 32.76 29.52 A 2.24 2.24 0 0 1 31.69 29.28 Q 30.764 28.785 30.571 27.269 A 6.905 6.905 0 0 1 30.52 26.4 Q 30.52 22.908 33.112 17.505 A 51.433 51.433 0 0 1 33.72 16.28 Q 34.335 15.118 34.512 14.774 A 9.632 9.632 0 0 0 34.56 14.68 L 36.28 15.72 Q 35.44 17.24 34.22 20.56 A 61.923 61.923 0 0 0 33.805 21.721 Q 33.186 23.518 33.043 24.384 A 2.76 2.76 0 0 0 33 24.82 Q 33 25.76 33.4 26.16 A 1.308 1.308 0 0 0 34.343 26.56 A 1.559 1.559 0 0 0 34.36 26.56 Q 35.364 26.56 37.094 24.693 A 19.097 19.097 0 0 0 37.36 24.4 Z M 218.92 24.4 L 219.72 25.08 Q 218.76 26.92 217.18 28.22 Q 215.62 29.504 214.352 29.52 A 2.531 2.531 0 0 1 214.32 29.52 A 2.24 2.24 0 0 1 213.25 29.28 Q 212.324 28.785 212.131 27.269 A 6.905 6.905 0 0 1 212.08 26.4 Q 212.08 22.908 214.672 17.505 A 51.433 51.433 0 0 1 215.28 16.28 Q 215.895 15.118 216.072 14.774 A 9.632 9.632 0 0 0 216.12 14.68 L 217.84 15.72 Q 217 17.24 215.78 20.56 A 61.923 61.923 0 0 0 215.365 21.721 Q 214.746 23.518 214.603 24.384 A 2.76 2.76 0 0 0 214.56 24.82 Q 214.56 25.76 214.96 26.16 A 1.308 1.308 0 0 0 215.903 26.56 A 1.559 1.559 0 0 0 215.92 26.56 Q 216.924 26.56 218.654 24.693 A 19.097 19.097 0 0 0 218.92 24.4 Z M 12.96 27.08 A 29.557 29.557 0 0 0 15.889 21.092 A 34.094 34.094 0 0 0 16.4 19.56 A 17.346 17.346 0 0 0 10.17 21.21 A 16.326 16.326 0 0 0 7.66 22.72 A 13.403 13.403 0 0 0 5.875 24.259 Q 5.002 25.171 4.511 26.124 A 5.429 5.429 0 0 0 3.88 28.64 A 2.917 2.917 0 0 0 4.063 29.69 A 2.619 2.619 0 0 0 4.74 30.68 Q 5.6 31.48 7 31.48 Q 8.104 31.48 9.357 30.746 A 8.688 8.688 0 0 0 10.04 30.3 A 10.128 10.128 0 0 0 11.861 28.596 A 13.346 13.346 0 0 0 12.96 27.08 Z M 111.24 30.16 A 24.983 24.983 0 0 0 108.459 31.65 A 20.418 20.418 0 0 0 106.8 32.8 A 15.502 15.502 0 0 0 105.23 34.145 Q 103.607 35.754 103.282 37.305 A 3.764 3.764 0 0 0 103.2 38.08 A 2.688 2.688 0 0 0 103.285 38.775 A 2.004 2.004 0 0 0 103.76 39.64 Q 104.32 40.24 105.16 40.24 A 3.484 3.484 0 0 0 107.735 38.994 Q 109.891 36.696 111.24 30.16 Z M 240.24 23.64 Q 243.48 22.52 245.8 20.84 A 11.367 11.367 0 0 0 246.704 20.118 Q 247.63 19.292 247.95 18.538 A 1.981 1.981 0 0 0 248.12 17.76 A 1.242 1.242 0 0 0 247.792 16.916 A 1.659 1.659 0 0 0 247.72 16.84 A 1.424 1.424 0 0 0 247.34 16.563 A 1.212 1.212 0 0 0 246.8 16.44 A 3.628 3.628 0 0 0 245.285 16.797 Q 244.19 17.299 243.004 18.505 A 14.077 14.077 0 0 0 242.74 18.78 A 11.311 11.311 0 0 0 241.332 20.617 Q 240.548 21.91 240.3 23.255 A 6.936 6.936 0 0 0 240.24 23.64 Z M 37.062 12.526 A 4.093 4.093 0 0 0 37.88 12.6 A 1.417 1.417 0 0 0 38.774 12.304 A 1.778 1.778 0 0 0 39.16 11.88 Q 39.64 11.16 39.64 10.32 A 2.366 2.366 0 0 0 39.633 10.134 A 1.728 1.728 0 0 0 39.08 8.96 A 1.872 1.872 0 0 0 38.302 8.526 A 2.435 2.435 0 0 0 37.64 8.44 Q 36.76 8.44 36.2 9.12 Q 35.64 9.8 35.64 10.8 Q 35.64 12.234 37.062 12.526 Z M 218.622 12.526 A 4.093 4.093 0 0 0 219.44 12.6 A 1.417 1.417 0 0 0 220.334 12.304 A 1.778 1.778 0 0 0 220.72 11.88 Q 221.2 11.16 221.2 10.32 A 2.366 2.366 0 0 0 221.193 10.134 A 1.728 1.728 0 0 0 220.64 8.96 A 1.872 1.872 0 0 0 219.862 8.526 A 2.435 2.435 0 0 0 219.2 8.44 Q 218.32 8.44 217.76 9.12 Q 217.2 9.8 217.2 10.8 Q 217.2 12.234 218.622 12.526 Z" vector-effect="non-scaling-stroke"/></g></svg>